<?xml version="1.0" standalone="no"?>
<!DOCTYPE svg PUBLIC "-//W3C//DTD SVG 20010904//EN"
 "http://www.w3.org/TR/2001/REC-SVG-20010904/DTD/svg10.dtd">
<svg version="1.0" xmlns="http://www.w3.org/2000/svg"
 width="1600.000000pt" height="1600.000000pt" viewBox="0 0 1600.000000 1600.000000"
 preserveAspectRatio="xMidYMid meet">
<metadata>
Created by potrace 1.11, written by Peter Selinger 2001-2013
</metadata>
<g transform="translate(0.000000,1600.000000) scale(0.100000,-0.100000)"
fill="#000000" stroke="none">
<path d="M8066 15993 c-1 -1 -58 -4 -126 -7 -69 -3 -138 -8 -155 -10 -16 -2
-57 -7 -90 -10 -33 -4 -68 -9 -77 -12 -9 -3 -32 -7 -50 -8 -43 -5 -94 -15
-138 -26 -19 -5 -46 -11 -60 -14 -14 -3 -59 -14 -100 -26 -41 -11 -82 -22 -91
-24 -20 -5 -108 -34 -129 -43 -8 -3 -19 -7 -25 -7 -5 -1 -21 -7 -35 -13 -14
-7 -68 -29 -120 -49 -158 -63 -530 -262 -604 -325 -6 -5 -49 -37 -96 -71 -220
-158 -468 -390 -589 -553 -124 -165 -276 -431 -295 -515 -1 -3 -8 -21 -16 -40
-29 -70 -47 -77 -225 -86 -202 -9 -242 -29 -231 -116 7 -61 16 -110 22 -128 5
-15 21 -88 31 -145 3 -16 9 -38 14 -47 5 -9 9 -25 9 -35 0 -10 16 -36 35 -58
47 -54 97 -156 110 -227 3 -13 7 -34 10 -48 11 -53 16 -77 26 -145 11 -72 14
-99 23 -195 3 -30 13 -93 22 -140 9 -47 17 -97 19 -111 7 -51 43 -184 72 -264
8 -22 16 -47 18 -56 4 -18 76 -199 106 -266 10 -24 19 -45 19 -47 0 -2 16 -39
36 -82 l37 -78 -29 -56 c-45 -87 -196 -309 -282 -415 -4 -5 -34 -44 -66 -85
-33 -41 -65 -80 -72 -86 -8 -6 -14 -16 -14 -22 0 -6 -4 -12 -8 -14 -4 -1 -42
-43 -83 -93 -41 -49 -82 -99 -91 -110 -175 -209 -347 -443 -439 -597 l-34 -57
-615 -3 c-338 -2 -628 -7 -645 -11 -150 -40 -285 -171 -325 -317 -12 -44 -15
-152 -6 -198 3 -12 8 -59 12 -105 9 -114 11 -142 13 -142 1 0 4 -27 6 -60 3
-33 7 -73 9 -90 6 -39 19 -178 31 -325 3 -36 7 -76 10 -90 2 -14 7 -54 10 -90
3 -36 8 -83 11 -105 2 -22 6 -65 9 -95 2 -30 6 -73 9 -95 3 -22 8 -71 11 -110
3 -38 8 -77 10 -85 2 -8 7 -55 10 -105 3 -49 8 -103 11 -120 2 -16 7 -62 10
-102 5 -66 3 -74 -23 -115 -15 -23 -33 -52 -39 -63 -6 -11 -37 -64 -68 -118
-31 -54 -56 -103 -56 -108 0 -5 -4 -9 -10 -9 -5 0 -10 -4 -10 -9 0 -4 -29 -69
-64 -142 -153 -322 -258 -647 -306 -949 -6 -36 -13 -76 -16 -90 -16 -89 -23
-454 -10 -595 5 -59 18 -140 31 -205 2 -8 7 -36 11 -63 3 -26 11 -47 16 -47 5
0 7 -4 4 -8 -15 -25 96 -330 178 -488 47 -88 177 -290 213 -329 10 -11 34 -40
54 -65 67 -82 227 -238 308 -300 18 -14 45 -34 59 -46 51 -40 132 -94 141 -94
5 0 11 -4 13 -8 4 -10 152 -99 178 -107 11 -4 21 -15 21 -26 1 -18 4 -30 9
-46 1 -5 2 -12 1 -17 -2 -9 17 -144 26 -181 2 -11 5 -33 7 -50 2 -16 9 -55 15
-85 15 -72 22 -111 26 -135 1 -11 3 -20 5 -20 1 0 3 -9 4 -20 4 -29 46 -215
57 -251 5 -17 12 -41 14 -54 5 -25 43 -163 76 -275 47 -160 176 -532 200 -576
7 -13 12 -26 12 -29 -1 -5 8 -29 29 -77 6 -16 12 -32 14 -38 12 -50 230 -504
306 -640 133 -235 335 -538 442 -662 6 -7 18 -20 26 -30 76 -89 104 -120 180
-198 86 -88 193 -186 234 -214 12 -8 23 -18 26 -21 11 -14 160 -121 184 -132
14 -6 26 -14 26 -18 0 -4 8 -10 18 -14 17 -5 52 -26 62 -36 5 -5 151 -76 185
-90 11 -5 43 -18 70 -30 28 -12 57 -23 66 -25 9 -2 39 -11 65 -20 27 -9 57
-19 68 -21 17 -3 36 -17 76 -53 18 -17 127 -69 161 -77 63 -15 114 -19 229
-19 185 1 207 11 154 74 l-26 31 46 -4 c46 -5 100 -28 220 -95 32 -18 68 -36
80 -39 25 -8 424 -7 551 1 50 3 144 10 210 14 158 10 602 9 735 -1 217 -18
612 -12 751 10 21 4 46 3 56 -1 44 -19 152 -21 164 -3 7 11 150 21 306 22 68
1 123 3 123 6 0 3 39 5 88 4 123 -1 258 32 300 73 7 7 16 13 20 13 4 0 27 19
51 42 41 37 135 88 164 88 36 0 191 93 290 175 9 8 17 12 17 10 0 -3 10 3 22
15 12 11 25 20 29 20 4 0 14 6 21 13 7 7 36 31 63 52 28 22 66 54 85 70 42 37
277 272 305 306 11 13 46 55 78 94 143 169 330 440 465 673 40 68 72 125 72
127 0 2 18 35 40 74 22 39 40 77 40 85 0 8 4 16 9 18 7 3 86 161 133 268 111
251 221 549 291 785 38 128 61 208 63 220 1 6 3 12 4 15 1 3 3 12 5 20 1 8 8
34 14 58 7 23 9 46 6 51 -3 5 -1 11 4 13 5 1 12 19 15 38 3 19 15 80 27 135
11 55 23 116 25 135 3 19 12 78 20 130 19 115 21 139 29 255 4 50 10 93 13 97
4 3 48 9 97 12 143 9 252 28 335 60 19 8 38 14 42 15 21 3 128 58 177 90 55
35 184 159 229 220 64 85 166 330 186 445 3 16 10 52 15 80 25 125 34 240 34
431 0 148 -11 383 -18 396 -3 3 -7 37 -10 75 -5 66 -8 97 -20 181 -3 21 -8 52
-10 68 -10 70 -16 101 -20 115 -2 8 -7 31 -9 50 -11 77 -15 98 -30 163 -9 37
-18 82 -21 100 -2 18 -6 39 -8 47 -2 8 -9 42 -16 75 -7 33 -16 67 -19 75 -3 8
-5 18 -4 21 1 4 -7 38 -18 75 -10 38 -21 86 -24 108 -4 21 -9 43 -13 50 -4 6
-9 18 -10 28 -2 15 -22 90 -68 263 -9 33 -41 146 -72 250 -30 105 -57 199 -60
210 -3 11 -7 27 -10 35 -3 8 -7 20 -9 25 -5 16 -51 166 -66 215 -14 45 -15 76
-4 180 19 194 32 339 41 450 3 36 7 85 10 110 16 148 26 255 30 315 5 72 16
200 20 225 2 14 7 59 11 100 3 41 8 89 9 105 21 212 23 272 12 320 -5 22 -10
48 -12 58 -9 42 -73 142 -124 195 -73 73 -86 84 -152 115 -108 51 -104 50
-725 49 l-582 -2 -22 43 c-12 23 -57 93 -99 156 -42 62 -80 121 -86 129 -5 9
-20 27 -32 41 -13 14 -23 29 -23 32 0 9 -92 123 -102 127 -4 2 -8 8 -8 13 0 4
-34 52 -76 106 -42 54 -86 111 -98 126 -11 16 -27 35 -33 42 -7 8 -13 18 -13
23 0 6 -4 12 -8 14 -12 5 -123 162 -207 293 -80 126 -219 398 -230 452 -5 24
0 41 19 72 14 22 26 43 26 46 0 4 11 31 25 61 14 30 25 58 25 63 0 4 7 22 16
39 8 17 16 41 17 52 1 11 4 20 7 20 4 0 7 6 7 13 0 6 12 53 27 102 14 50 40
151 57 225 38 167 37 165 44 215 7 44 9 57 25 160 7 39 13 132 15 208 2 77 6
141 9 144 3 3 1 14 -5 24 -7 13 -6 19 1 19 6 0 8 4 5 10 -9 15 21 65 59 97 19
15 43 44 54 63 22 37 66 225 57 240 -3 5 -1 11 3 14 5 3 10 39 11 81 2 73 1
77 -28 105 -25 22 -44 29 -94 35 -79 8 -110 13 -173 26 -46 9 -52 13 -69 52
-10 23 -27 54 -37 70 -11 15 -17 27 -13 27 13 0 -216 394 -245 420 -4 4 -29
36 -145 189 -106 140 -390 404 -560 522 -27 18 -52 37 -55 40 -11 12 -207 129
-218 129 -5 0 -12 4 -14 9 -4 11 -253 132 -303 147 -5 2 -53 20 -105 40 -80
31 -159 57 -205 67 -5 2 -14 5 -20 9 -5 3 -37 11 -70 18 -33 6 -73 15 -90 20
-34 11 -47 13 -220 39 -132 20 -150 22 -265 27 -63 3 -132 6 -153 7 -21 1 -40
1 -41 0z m2089 -2057 c33 -3 84 -9 112 -11 71 -6 177 -31 227 -54 135 -61 199
-217 192 -463 -2 -70 -7 -131 -10 -136 -3 -5 -8 -29 -11 -53 -3 -24 -13 -73
-22 -109 -9 -36 -17 -72 -18 -80 -2 -17 -4 -23 -29 -95 -10 -27 -20 -61 -22
-75 -10 -49 -77 -170 -125 -223 -63 -71 -160 -135 -277 -181 -51 -21 -100 -39
-110 -41 -185 -40 -229 -47 -334 -48 -65 -1 -118 -6 -118 -10 0 -5 -6 -5 -12
0 -7 4 -35 8 -63 9 -106 2 -294 43 -391 84 -67 29 -161 98 -219 162 -63 69
-95 107 -95 112 0 2 -16 28 -36 57 -84 123 -169 345 -190 494 -16 119 -4 267
28 328 17 35 92 121 101 115 1 -1 21 11 45 25 64 41 233 104 329 124 49 9 53
10 56 13 3 3 28 7 80 13 26 3 51 8 55 11 5 3 37 7 73 11 35 3 80 7 99 10 19 2
61 5 93 7 31 1 57 5 57 8 0 7 465 4 535 -4z m-3910 -10 c153 -8 230 -16 435
-42 25 -3 61 -7 80 -9 19 -3 51 -7 70 -10 19 -3 53 -8 75 -11 114 -16 179 -30
208 -45 12 -7 23 -12 24 -11 6 3 72 -24 98 -40 40 -26 97 -92 118 -137 17 -38
21 -66 21 -166 1 -66 -3 -138 -6 -160 -14 -78 -28 -140 -38 -171 -6 -17 -13
-42 -15 -54 -21 -109 -116 -325 -178 -404 -131 -167 -378 -283 -640 -301 -28
-2 -52 -5 -52 -5 0 -6 -149 -4 -158 2 -6 4 -19 2 -29 -3 -10 -5 -18 -6 -18 -2
0 5 -17 9 -37 9 -38 1 -105 11 -133 19 -8 2 -26 6 -40 9 -77 15 -152 37 -164
48 -6 4 -16 8 -24 8 -29 0 -198 90 -247 132 -48 41 -62 55 -91 93 -39 51 -107
191 -133 275 -44 138 -65 279 -65 435 0 172 13 246 61 354 30 67 108 134 171
146 9 1 35 8 57 13 63 17 94 22 180 28 44 3 81 7 82 8 3 3 286 -3 388 -8z
m4733 -28 c30 -15 28 -45 -5 -61 -37 -19 -141 -16 -154 4 -20 32 -5 62 36 71
30 6 97 -2 123 -14z m-5790 -29 c2 -14 -4 -31 -13 -39 -21 -17 -84 -24 -118
-11 -29 11 -34 30 -16 62 9 17 19 20 77 17 64 -3 67 -4 70 -29z m2930 -1120
c40 -10 164 -60 182 -73 8 -6 31 -20 50 -30 38 -22 79 -56 119 -99 40 -43 101
-148 101 -173 0 -13 5 -26 10 -29 7 -4 6 -14 -2 -28 -6 -12 -11 -23 -10 -24
12 -18 -14 -56 -96 -139 -294 -298 -414 -358 -562 -278 -25 14 -59 37 -76 52
-17 15 -47 41 -67 58 -85 72 -249 229 -268 256 -39 54 -18 173 41 236 11 12
20 25 20 29 1 4 15 19 31 33 17 14 45 37 62 52 67 57 272 151 362 165 17 3 31
6 33 8 2 2 17 -1 33 -5 16 -5 33 -10 37 -11z m2327 -456 c-4 -16 -8 -35 -10
-44 -3 -17 -15 -46 -80 -204 -46 -111 -135 -285 -147 -285 -4 0 -8 -6 -8 -13
0 -8 -11 -27 -25 -43 -14 -16 -25 -32 -25 -35 0 -3 -8 -15 -17 -26 -10 -12
-38 -44 -62 -72 -130 -153 -348 -327 -516 -411 -28 -14 -51 -28 -53 -32 -2 -5
-8 -8 -14 -8 -5 0 -40 -14 -76 -32 -37 -17 -69 -32 -72 -33 -3 -1 -18 -7 -35
-14 -75 -31 -347 -117 -395 -125 -14 -2 -43 -9 -65 -14 -22 -6 -56 -14 -75
-17 -19 -3 -42 -8 -50 -10 -8 -2 -35 -7 -60 -10 -25 -3 -52 -8 -60 -10 -8 -2
-39 -7 -69 -10 -30 -4 -63 -9 -75 -11 -27 -5 -315 -16 -426 -17 -83 0 -282 11
-317 17 -10 2 -45 7 -78 11 -32 4 -68 9 -80 11 -11 3 -42 7 -70 10 -27 3 -93
15 -145 26 -52 10 -106 22 -120 24 -39 8 -210 54 -260 71 -25 8 -52 16 -61 18
-8 2 -33 11 -55 20 -21 9 -43 18 -49 19 -21 5 -104 42 -196 87 -233 114 -453
282 -594 452 -16 20 -40 48 -52 62 -71 81 -225 351 -268 470 -10 28 -23 56
-28 63 -5 6 -7 12 -4 12 3 0 -1 16 -9 36 -21 51 -8 60 53 40 28 -9 58 -19 69
-21 10 -3 51 -14 89 -25 39 -11 84 -22 100 -25 17 -2 50 -8 75 -14 92 -20 160
-25 360 -25 202 0 266 5 345 26 22 5 48 12 57 14 40 9 55 14 104 33 61 24 81
16 67 -25 -12 -35 -9 -155 4 -204 6 -19 17 -48 26 -65 16 -31 94 -116 135
-148 56 -43 229 -137 307 -167 21 -8 55 -21 170 -65 39 -15 77 -28 85 -30 19
-4 108 -33 135 -44 72 -30 165 -54 204 -54 25 0 86 12 136 27 49 16 97 29 105
31 9 2 33 10 53 19 20 8 37 13 37 10 0 -2 13 2 30 11 16 8 33 16 37 16 5 1 18
5 31 10 13 5 28 9 33 9 5 0 17 4 27 9 22 11 45 20 162 66 188 74 247 108 325
190 86 90 111 187 90 348 -7 54 -6 57 14 57 12 0 31 -5 41 -10 10 -6 53 -17
95 -25 235 -45 540 -38 820 19 48 10 264 66 288 75 15 6 27 9 27 6 0 -2 15 2
33 10 17 8 34 14 36 15 2 0 0 -12 -4 -27z m1118 -8032 c10 -1 16 -5 13 -10 -3
-5 -8 -44 -11 -87 -6 -110 -14 -181 -25 -239 -5 -27 -11 -63 -14 -80 -12 -82
-19 -115 -32 -170 -8 -33 -17 -71 -20 -85 -24 -117 -160 -537 -209 -645 -8
-16 -25 -58 -40 -93 -28 -69 -71 -164 -117 -259 -16 -34 -29 -65 -28 -69 1 -4
-2 -10 -7 -13 -4 -3 -20 -28 -34 -56 -93 -176 -142 -265 -209 -375 -48 -80
-147 -236 -155 -244 -19 -21 -95 -138 -95 -146 0 -5 -4 -10 -8 -12 -5 -1 -30
-34 -57 -72 -26 -38 -54 -76 -62 -85 -8 -9 -37 -45 -64 -81 -137 -179 -286
-350 -470 -541 l-37 -38 22 -18 c11 -11 57 -46 101 -78 44 -32 82 -62 85 -66
10 -15 82 -40 120 -43 83 -6 209 -90 250 -165 19 -37 16 -108 -6 -132 -19 -21
-68 -50 -80 -48 -4 0 -10 -4 -13 -10 -4 -6 -12 -6 -20 -1 -12 7 -11 16 5 57
23 56 23 59 2 98 -24 45 -164 114 -202 99 -8 -3 -32 -31 -53 -62 -21 -31 -43
-62 -49 -68 -6 -7 -21 -25 -35 -40 -13 -16 -58 -58 -99 -94 -41 -36 -78 -69
-82 -75 -4 -5 -8 -6 -8 -2 0 4 -10 -2 -22 -14 -31 -29 -120 -79 -130 -73 -4 3
-8 1 -8 -3 0 -5 -12 -10 -27 -11 -16 -1 -52 -6 -81 -11 -94 -15 -86 -5 113
136 137 97 153 111 242 201 140 141 137 171 -27 280 -51 33 -61 36 -127 36
-84 0 -98 -10 -166 -109 -22 -33 -44 -61 -49 -63 -4 -2 -8 -8 -8 -12 0 -5 -27
-46 -61 -92 -33 -46 -68 -94 -77 -108 -9 -14 -24 -32 -34 -41 -10 -9 -18 -19
-18 -23 0 -4 -12 -19 -26 -34 -14 -15 -43 -57 -65 -94 -47 -77 -57 -87 -96
-94 -15 -3 -36 -7 -45 -10 -22 -7 -23 -10 6 63 13 34 21 64 18 67 -3 3 0 6 6
6 7 0 12 5 12 10 0 12 91 174 114 205 9 11 50 67 92 125 42 58 97 129 121 157
51 60 51 83 0 110 -48 25 -135 20 -204 -12 -72 -33 -134 -80 -246 -188 -48
-47 -98 -87 -110 -91 -13 -3 -41 -13 -63 -22 -21 -10 -43 -19 -49 -20 -5 -2
-53 -19 -105 -39 -120 -46 -235 -85 -280 -95 -19 -5 -44 -10 -55 -13 -117 -26
-277 -40 -475 -40 -144 0 -297 9 -324 19 -11 4 -14 -16 -18 -100 -2 -77 -8
-110 -19 -121 -16 -16 -108 -28 -110 -14 -4 23 -2 38 10 91 13 59 6 128 -12
128 -6 0 -7 3 -4 7 9 8 -64 142 -118 218 -79 110 -188 211 -281 258 -17 9 -34
13 -38 10 -3 -4 -6 -2 -6 3 0 21 -160 25 -185 4 -8 -7 -15 -9 -15 -5 0 5 -9 0
-19 -10 -20 -17 -20 -18 2 -48 12 -17 28 -37 34 -45 7 -7 16 -18 20 -25 5 -7
36 -36 70 -65 162 -139 213 -219 255 -405 21 -96 21 -97 2 -115 -11 -10 -29
-21 -42 -24 -28 -8 -41 16 -71 125 -12 43 -30 95 -40 115 -21 40 -106 137
-236 267 -44 44 -93 97 -109 118 -36 47 -67 63 -130 66 -44 2 -56 -2 -132 -53
-117 -78 -124 -101 -59 -201 34 -54 81 -103 164 -175 90 -78 112 -100 107
-108 -4 -7 -127 -8 -133 -2 -2 1 -7 3 -11 4 -19 2 -149 106 -186 147 -22 24
-62 74 -89 111 -39 54 -54 67 -71 63 -56 -11 -66 -15 -98 -30 -38 -20 -76 -52
-90 -78 -6 -13 -3 -37 12 -83 12 -36 19 -68 16 -71 -13 -14 -89 23 -116 55
-25 30 -28 42 -26 88 3 59 37 119 88 155 33 24 134 66 175 74 65 12 76 15 106
34 18 11 42 30 55 44 l22 23 -39 32 c-22 18 -43 32 -46 32 -6 0 -116 79 -125
90 -3 3 -14 13 -26 21 -83 56 -330 295 -423 408 -29 35 -58 70 -64 77 -28 28
-47 55 -47 63 0 5 -4 11 -9 13 -4 2 -36 41 -70 88 -33 47 -69 95 -79 108 -9
13 -43 65 -75 115 -32 51 -64 100 -72 110 -8 9 -15 20 -15 23 0 3 -22 44 -50
91 -27 47 -50 87 -50 90 0 3 -9 18 -21 34 -11 16 -17 29 -13 29 3 0 2 6 -4 13
-18 22 -127 244 -197 402 -76 169 -203 522 -250 695 -31 112 -75 281 -79 300
-3 14 -8 36 -11 50 -3 14 -8 36 -11 50 -3 14 -9 43 -14 65 -5 22 -12 63 -15
90 -4 28 -10 66 -15 85 -5 19 -12 60 -15 90 -4 30 -9 64 -11 75 -2 11 -7 56
-10 100 l-6 80 3584 -1 c1970 -1 3591 -2 3601 -3z m-2669 -3814 c-3 -12 -14
-40 -24 -62 -11 -22 -21 -53 -24 -69 -3 -16 -10 -34 -16 -40 -23 -23 0 -166
28 -166 5 0 14 -11 20 -25 13 -27 11 -28 -58 -28 -56 0 -65 3 -78 24 -26 42
-37 152 -21 215 6 22 11 45 11 52 1 6 6 12 11 12 6 0 7 3 4 6 -12 12 27 64 58
77 90 40 100 41 89 4z"/>
</g>
</svg>
