<svg width="100" height="100" viewBox="0 0 100 100" fill="none" xmlns="http://www.w3.org/2000/svg">
<rect width="100" height="100" rx="50" fill="white"/>
<path d="M83.6549 47.9779C87.4123 58.3963 91.5252 72.239 80.0758 72.2051C79.4359 80.6312 73.8791 90.5925 67.4799 94.436C66.9074 94.7506 66.4697 95.1817 65.7997 95.3847C65.5658 95.4567 65.3285 95.547 65.1271 95.5999C64.8595 95.6607 64.6533 95.775 64.3724 96.0179C63.4467 96.8259 62.1863 96.7649 61.3477 96.7821C59.3086 96.8224 58.4339 96.8762 58.4339 96.9613C58.4339 97.0493 57.4613 97.0385 57.399 96.9497C57.3674 96.9048 57.2245 96.8915 57.0319 96.9152C55.9462 97.0489 55.2936 97.0744 53.6247 97.0487C52.5961 97.0328 51.5826 96.9882 51.3727 96.9493C50.9931 96.8792 47.99 96.9061 46.5826 96.9921C45.4604 97.1139 43.0511 97.1171 42.7084 97.1572C41.5058 97.2582 40.6258 96.0861 39.5403 96.2856C39.8607 96.3747 39.9335 96.6122 39.936 96.8166C38.4615 96.9887 36.8383 96.9863 35.7827 96.0252C25.511 93.7541 20.149 79.8221 19.2207 72.373C10.2812 68.2515 7.93125 58.8913 15.3768 49.0408L24.5265 35.851C26.376 32.8332 30.2934 29.7921 32.0211 26.8026C31.3783 25.5432 30.6898 24.2069 30.2628 22.7712C30.0401 22.0064 29.8783 21.1558 29.7655 20.1554C29.5857 19.1039 29.4862 17.7598 28.6814 17.0289C28.5449 16.9064 28.4332 16.7543 28.4332 16.6912C28.4332 16.628 28.4002 16.4837 28.3599 16.3704C28.2984 16.198 28.1635 15.653 28.0058 14.9403C27.8262 14.3084 27.9336 14.2996 28.1043 14.1236C28.7327 13.6934 30.5391 14.2403 30.9525 13.5386C31.5347 12.0559 32.4303 10.8841 33.4362 9.72515C43.9327 -0.358519 61.3952 1.37862 67.9071 13.1152L68.2957 13.822L68.8801 13.936C69.8653 14.0809 70.6845 13.9007 70.627 14.8555C70.613 15.0752 70.5776 15.2759 70.5484 15.3016C70.4224 15.8841 70.3954 16.6077 69.9469 17.0699C69.8146 17.0699 69.3508 17.5555 69.3416 17.7035C69.3372 17.7793 69.3219 18.4208 69.3082 19.1291C69.1957 21.1633 68.1789 24.9473 67.1609 26.2963C68.6538 29.9552 72.4419 32.9244 74.1587 35.8007L83.6549 47.9779ZM43.5824 96.385C43.2785 95.4837 43.3587 94.6298 41.4326 93.372C41.0845 93.0052 40.8 92.6689 40.8 92.6246C40.8 92.5095 41.3595 92.3282 41.7148 92.3282C42.9798 92.3282 44.5905 93.6834 45.4113 95.4386C45.7747 96.0818 44.876 96.7367 45.6281 96.7159C46.2118 96.652 46.2584 96.5898 46.2561 95.875L46.2543 95.2687L46.4854 95.3132C46.9243 95.3978 48.696 95.4522 49.4224 95.4033C51.9799 95.2613 52.4655 95.0438 55.5627 93.9902C55.6419 93.9535 55.9511 93.7051 56.2498 93.4382C56.8949 92.8616 57.2697 92.6078 57.7852 92.3983C58.2424 92.2124 58.8278 92.1938 59.1801 92.3538C59.4362 92.4701 59.5087 92.6796 59.3268 92.7776C59.2719 92.8069 59.0743 93.0155 58.8878 93.2408C58.7011 93.4661 58.3437 93.8887 58.0936 94.1799C57.5178 94.8499 56.9464 95.7168 56.7821 96.1698C56.7122 96.3626 56.6211 96.5588 56.5794 96.6058C56.4592 96.7418 56.5457 96.7569 56.9439 96.6692C57.2834 96.5945 57.3337 96.5567 57.5225 96.2347C57.6363 96.0408 57.8819 95.7239 58.0681 95.5304C58.5191 95.0622 59.2082 94.235 59.7699 93.4876C60.0219 93.1525 60.3033 92.8409 60.3952 92.7951C60.4873 92.7494 60.7646 92.7087 61.0115 92.7045C61.3911 92.6983 61.503 92.7254 61.736 92.8815C61.8877 92.983 62.0405 93.0659 62.0758 93.0659C62.111 93.0659 62.2679 93.1587 62.4243 93.272C62.7768 93.5273 62.7946 93.7471 62.4926 94.1123C62.0459 94.6522 61.2418 95.2571 59.9436 96.0296C59.4467 96.3253 59.1617 96.5343 59.2184 96.5611C59.2699 96.5856 59.5877 96.5698 59.9245 96.5262C60.6061 96.438 60.8487 96.3194 61.8765 95.5726C62.5725 95.0665 62.9082 94.7478 63.273 94.247C63.4235 94.04 63.5947 93.8708 63.6534 93.8708C63.9324 93.8708 64.6049 94.1153 64.8273 94.2976C65.1036 94.5239 65.1334 94.6925 64.9609 95.0551C64.7646 95.4678 64.8079 95.4932 65.3362 95.275C66.2132 94.9129 65.8837 93.9416 64.722 93.4643C64.4581 93.3559 64.1632 93.2672 64.0666 93.2672C63.7441 93.2672 63.3699 93.1371 63.1337 92.9429C63.0051 92.8371 62.6679 92.6075 62.3845 92.4328C62.1011 92.2581 61.8692 92.0886 61.8692 92.0562C67.7604 86.9491 72.9426 78.7363 73.1674 72.0714H49.0827H24.9984C25.799 80.0226 30.8895 88.9915 37.0788 92.4817C37.2781 92.5928 37.4406 92.7168 37.44 92.7574C37.4382 92.878 36.8544 93.2672 36.6757 93.2672C35.886 93.3845 34.9266 93.6398 34.577 94.3205C34.3748 94.7458 34.4513 95.1023 34.7998 95.3583C34.9638 95.4788 35.4316 95.5921 35.5036 95.5288C35.4334 95.2692 35.299 95.0507 35.2275 94.7759C35.2275 94.5103 35.7141 94.1689 36.2581 94.0528C36.3421 94.0348 36.4664 94 36.5345 93.9752C36.6271 93.9415 36.7405 94.0372 36.9827 94.3532C37.401 94.8993 37.7419 95.2111 38.3666 95.6197C38.8421 95.9305 38.8998 95.9502 39.3355 95.9502C39.5903 95.9502 39.8181 95.9227 39.8416 95.8893C39.8651 95.8558 39.6681 95.6791 39.4036 95.4965C39.1393 95.3139 38.6424 94.9182 38.2998 94.6171C37.1952 93.3707 37.8253 93.4509 38.7395 92.8308C38.8771 92.685 39.5589 92.6997 39.8459 92.8546C39.9719 92.9227 40.2434 93.2169 40.4493 93.5084C41.2378 94.0925 41.7123 94.6097 42.1844 95.0603C42.6258 95.4817 42.7062 96.1993 42.9003 96.6396C43.0946 97.0798 43.6699 96.6069 43.5824 96.385ZM55.248 96.782C55.2125 96.782 55.176 96.638 55.0317 96.5114C54.7924 96.301 54.7697 96.2468 54.7697 95.8848C54.7697 95.6669 54.7508 95.5916 54.7928 95.5688C54.8349 95.546 54.9224 95.3519 54.9224 95.2861C54.9224 95.2205 55.0294 94.9783 55.1605 94.7481C55.4367 94.2626 55.3128 94.2987 54.876 94.4337C54.3395 94.5996 54.302 94.7715 54.1382 95.1978C53.9594 95.6629 53.986 96.3619 54.1947 96.6418C54.3148 96.8028 54.3761 96.8221 54.7658 96.8221C55.0059 96.8221 55.266 96.782 55.248 96.782ZM52.6322 33.4054C57.5931 32.8337 62.2789 31.1189 64.5253 27.2988C65.0676 26.3558 65.7465 24.8145 65.6551 24.7341C65.6304 24.7124 65.5247 24.7293 65.4201 24.7708C65.2354 24.8448 63.9007 25.1574 63.1286 25.3075C61.0174 25.7179 58.2707 25.7017 56.9245 25.271C56.4038 25.0721 56.5523 25.4538 56.6035 25.7387C56.811 26.8692 56.2541 27.7104 54.8977 28.3145C54.0067 28.7113 51.6173 29.475 50.6201 29.7207C49.5405 29.9866 49.5166 30.0647 48.7206 29.8181C46.7867 29.2186 43.3819 28.4473 42.4668 26.8736C42.2738 26.5234 42.1984 25.7984 42.3158 25.4246C42.4929 24.9831 42.0857 25.1655 41.8112 25.2429C39.9393 25.8947 36.9158 25.8728 34.273 25.1233C33.499 24.9545 33.2248 24.6993 33.5411 25.4208C35.9331 31.2451 41.7123 32.977 48.0461 33.5033C49.073 33.5851 51.5883 33.5314 52.6322 33.4055V33.4054ZM53.0314 25.1153C53.0314 25.1153 53.2237 24.751 53.1212 24.4478C52.7967 23.4876 51.8655 22.6786 50.1536 22.1987C49.7171 22.0106 49.3183 22.1139 48.8811 22.2366C47.5636 22.6056 46.4597 23.2811 45.9849 24.0082C45.8163 24.2665 45.7632 24.4338 45.7627 24.7075C45.7618 25.0658 45.7645 25.07 46.3535 25.6051C49.2253 27.8489 49.2587 28.5948 52.9365 25.2266L53.0314 25.1153ZM43.6607 22.4675C44.1826 21.7822 44.6145 20.7045 44.9258 19.451C45.5265 17.0328 44.8763 16.0608 42.174 15.7082C39.7074 15.3863 34.4929 14.7828 32.3995 15.6296C30.463 16.4129 31.0344 21.5744 33.0028 23.0549C35.461 24.9038 41.5539 25.2332 43.6607 22.4675ZM65.7895 22.7173C66.2812 22.1653 66.5342 21.5613 66.9186 20.2224C67.3668 18.661 67.7283 16.0058 65.6159 15.4554C63.0819 14.7951 54.0224 15.0117 53.3604 17.4244C52.7199 19.7582 54.7414 23.2121 57.0599 23.9938C59.7664 24.9062 64.1936 24.5088 65.7895 22.7173ZM30.3548 15.8186C30.5263 15.6821 30.5359 15.4884 30.3737 15.4337C30.3072 15.4113 30.041 15.3935 29.7821 15.3941C29.3095 15.3948 29.4572 15.5574 29.4015 15.7058C29.3081 15.9549 30.0709 16.0444 30.3548 15.8186ZM69.2289 15.7551C69.5528 15.5471 69.3173 15.327 68.5794 15.3263C68.3253 15.326 68.1888 15.3614 68.0906 15.4601C68.0589 15.4919 67.9834 15.5541 68.0906 15.7283C68.1711 15.8593 68.3257 15.8626 68.7748 15.8626C69.114 15.8626 69.1411 15.8116 69.2289 15.7551Z" fill="black"/>
<path d="M15.6337 32.8125H80.2507C81.9796 32.8125 83.7105 34.3595 83.5522 35.872L80.4995 65.0095C80.3411 66.5222 79.1077 67.7537 77.379 67.7515L18.9814 67.6767C17.2525 67.6742 16.0329 66.446 15.8607 64.9346L12.513 35.5545C12.3408 34.043 13.9048 32.8125 15.6337 32.8125Z" fill="url(#paint0_linear)"/>
<path d="M28.0975 67.902L18.8497 67.8901C16.9084 67.8877 15.878 66.4544 15.7291 65.1481L15 58.75L67.738 33.026H70.0819C73.2016 33.1555 77.4876 32.9111 80.3802 33.0375C82.533 33.2559 83.7259 35.2185 83.3907 36.3683L82.887 41.1774L28.0975 67.902ZM35.4066 67.9114L82.4924 44.9445L82.0042 49.6043L44.0631 67.9225L35.4066 67.9114Z" fill="black" fill-opacity="0.392157"/>
<path d="M49.8419 38C49.4921 38 49.1911 38.3084 49.1911 38.5798V42.79L46.1342 39.9006C45.8896 39.6688 45.4773 39.6553 45.2138 39.8707C44.9503 40.0858 44.9355 40.4481 45.1808 40.6795L49.1911 44.4699V48.5302L45.1893 46.5001L43.4584 41.5532C43.3531 41.2509 42.9887 41.0811 42.6447 41.1738C42.3008 41.2668 42.1079 41.5873 42.214 41.8893L43.5336 45.6601L39.3837 43.5549C39.0477 43.3845 38.6618 43.4941 38.487 43.7603C38.312 44.0266 38.4653 44.4098 38.7329 44.5454L42.8826 46.6506L38.5064 47.5319C38.1556 47.6023 37.9362 47.9092 38.0166 48.2173C38.097 48.5256 38.4467 48.7181 38.7974 48.647L44.5385 47.4906L48.5401 49.5207L44.5385 51.5507L38.7974 50.3944C38.4467 50.3234 38.097 50.5158 38.0166 50.824C37.9362 51.1321 38.1556 51.4392 38.5064 51.5094L42.8826 52.3908L38.7329 54.496C38.3969 54.6663 38.312 55.0147 38.487 55.2809C38.6618 55.5473 39.1163 55.6221 39.3837 55.4864L43.5336 53.3812L42.214 57.152C42.1079 57.4542 42.3008 57.7746 42.6447 57.8675C42.9887 57.9603 43.3531 57.7903 43.4584 57.4882L45.1893 52.5413L49.1911 50.5113V54.5714L45.1808 58.3619C44.9355 58.5932 44.9502 58.9555 45.2138 59.1708C45.4773 59.3861 45.8896 59.3725 46.1342 59.1408L49.1911 56.2513V60.4616C49.1911 60.8025 49.4921 61.0413 49.8419 61.0413C50.1918 61.0413 50.4928 60.7329 50.4928 60.4616V56.2513L53.5495 59.1408C53.7942 59.3725 54.2066 59.386 54.4701 59.1708C54.7336 58.9555 54.7484 58.5932 54.5031 58.3619L50.4928 54.5714V50.5111L54.4946 52.5413L56.2255 57.4882C56.3308 57.7905 56.6952 57.9604 57.0391 57.8675C57.3831 57.7747 57.576 57.4542 57.4699 57.152L56.1505 53.3812L60.3002 55.4864C60.6362 55.6569 61.022 55.5473 61.1969 55.2809C61.3719 55.0147 61.2183 54.6316 60.951 54.496L56.8013 52.3908L61.1775 51.5094C61.5283 51.4392 61.7477 51.1321 61.6673 50.824C61.5868 50.5158 61.2372 50.3234 60.8865 50.3944L55.1454 51.5507L51.1436 49.5207L55.1454 47.4906L60.8865 48.647C61.2372 48.7179 61.5868 48.5256 61.6673 48.2173C61.7477 47.9092 61.5283 47.6023 61.1775 47.5319L56.8013 46.6506L60.951 44.5454C61.287 44.375 61.3719 44.0266 61.1969 43.7603C61.022 43.4941 60.5676 43.4192 60.3002 43.5549L56.1505 45.6601L57.4699 41.8893C57.576 41.5873 57.3831 41.2668 57.0391 41.1738C56.6952 41.0811 56.3308 41.251 56.2255 41.5532L54.4946 46.5001L50.4928 48.5302V44.4699L54.5031 40.6795C54.7484 40.4481 54.7336 40.0858 54.4701 39.8707C54.2066 39.6553 53.7942 39.6688 53.5495 39.9006L50.4928 42.79V38.5798C50.4928 38.2387 50.1918 38 49.8419 38Z" fill="white"/>
<defs>
<linearGradient id="paint0_linear" x1="12.5" y1="50.282" x2="83.5622" y2="50.282" gradientUnits="userSpaceOnUse">
<stop stop-color="#007BFF"/>
<stop offset="1" stop-color="#A90093"/>
</linearGradient>
</defs>
</svg>
