<svg xmlns="http://www.w3.org/2000/svg" xmlns:xlink="http://www.w3.org/1999/xlink" version="1.1" width="256" height="256" viewBox="0 0 256 256" xml:space="preserve">

<defs>
</defs>
<g style="stroke: none; stroke-width: 0; stroke-dasharray: none; stroke-linecap: butt; stroke-linejoin: miter; stroke-miterlimit: 10; fill: none; fill-rule: nonzero; opacity: 1;" transform="translate(1.4065934065934016 1.4065934065934016) scale(2.81 2.81)" >
	<path d="M 71.048 90 h -24.98 c -1.657 0 -3 -1.343 -3 -3 s 1.343 -3 3 -3 h 24.98 c 3.838 0 6.961 -3.123 6.961 -6.961 V 12.96 c 0 -3.838 -3.123 -6.96 -6.961 -6.96 h -24.98 c -1.657 0 -3 -1.343 -3 -3 s 1.343 -3 3 -3 h 24.98 c 7.146 0 12.961 5.814 12.961 12.96 v 64.079 C 84.009 84.186 78.194 90 71.048 90 z" style="stroke: none; stroke-width: 1; stroke-dasharray: none; stroke-linecap: butt; stroke-linejoin: miter; stroke-miterlimit: 10; fill: rgb(30,64,175); fill-rule: nonzero; opacity: 1;" transform=" matrix(1 0 0 1 0 0) " stroke-linecap="round" />
	<path d="M 38.652 71.915 c -0.768 0 -1.536 -0.293 -2.121 -0.879 c -1.172 -1.171 -1.172 -3.071 0 -4.242 L 58.325 45 L 36.531 23.207 c -1.172 -1.171 -1.172 -3.071 0 -4.242 c 1.172 -1.172 3.072 -1.171 4.243 0 l 23.915 23.915 c 0.563 0.563 0.879 1.326 0.879 2.122 c 0 0.795 -0.316 1.559 -0.879 2.121 L 40.773 71.036 C 40.188 71.622 39.42 71.915 38.652 71.915 z" style="stroke: none; stroke-width: 1; stroke-dasharray: none; stroke-linecap: butt; stroke-linejoin: miter; stroke-miterlimit: 10; fill: rgb(30,64,175); fill-rule: nonzero; opacity: 1;" transform=" matrix(1 0 0 1 0 0) " stroke-linecap="round" />
	<path d="M 62.567 48 H 8.991 c -1.657 0 -3 -1.343 -3 -3 c 0 -1.657 1.343 -3 3 -3 h 53.576 c 1.657 0 3 1.343 3 3 C 65.567 46.657 64.225 48 62.567 48 z" style="stroke: none; stroke-width: 1; stroke-dasharray: none; stroke-linecap: butt; stroke-linejoin: miter; stroke-miterlimit: 10; fill: rgb(30,64,175); fill-rule: nonzero; opacity: 1;" transform=" matrix(1 0 0 1 0 0) " stroke-linecap="round" />
</g>
</svg>