<svg xmlns="http://www.w3.org/2000/svg" xmlns:xlink="http://www.w3.org/1999/xlink" version="1.1" width="256" height="256" viewBox="0 0 256 256" xml:space="preserve">

<defs>
</defs>
<g style="stroke: none; stroke-width: 0; stroke-dasharray: none; stroke-linecap: butt; stroke-linejoin: miter; stroke-miterlimit: 10; fill: none; fill-rule: nonzero; opacity: 1;" transform="translate(1.4065934065934016 1.4065934065934016) scale(2.81 2.81)" >
	<path d="M 81.669 52.081 L 69.53 55.699 L 59.503 49.91 l 6.731 -2.968 c 1.688 -0.744 1.688 -3.14 0 -3.884 l -6.73 -2.967 l 10.027 -5.789 l 12.138 3.617 c 0.285 0.085 0.574 0.126 0.857 0.126 c 1.293 0 2.486 -0.842 2.874 -2.144 c 0.474 -1.588 -0.431 -3.259 -2.019 -3.732 l -6.699 -1.996 l 6.19 -3.574 c 1.435 -0.829 1.927 -2.663 1.098 -4.098 c -0.828 -1.434 -2.66 -1.925 -4.098 -1.098 l -6.19 3.574 l 1.621 -6.8 c 0.385 -1.612 -0.61 -3.23 -2.223 -3.614 c -1.605 -0.383 -3.229 0.611 -3.613 2.223 l -2.937 12.321 l -10.027 5.789 l 0.795 -7.312 c 0.199 -1.834 -1.875 -3.032 -3.364 -1.942 L 48 29.985 V 18.407 l 9.202 -8.704 c 1.204 -1.139 1.257 -3.038 0.118 -4.241 c -1.138 -1.203 -3.035 -1.256 -4.241 -0.118 L 48 10.148 V 3 c 0 -1.657 -1.343 -3 -3 -3 c -1.657 0 -3 1.343 -3 3 v 7.148 l -5.079 -4.804 c -1.204 -1.139 -3.102 -1.084 -4.241 0.118 c -1.139 1.204 -1.086 3.103 0.118 4.241 L 42 18.407 v 11.578 l -5.935 -4.345 c -1.489 -1.09 -3.563 0.108 -3.364 1.942 l 0.795 7.312 L 23.47 29.106 l -2.937 -12.321 c -0.385 -1.611 -2.005 -2.608 -3.614 -2.223 c -1.611 0.384 -2.606 2.002 -2.223 3.614 l 1.621 6.8 l -6.19 -3.574 c -1.436 -0.828 -3.27 -0.335 -4.098 1.098 c -0.828 1.435 -0.337 3.27 1.098 4.098 l 6.19 3.574 l -6.7 1.996 C 5.03 32.642 4.126 34.313 4.599 35.9 c 0.388 1.302 1.581 2.145 2.874 2.145 c 0.283 0 0.572 -0.041 0.857 -0.126 l 12.139 -3.617 l 10.027 5.789 l -6.73 2.967 c -1.688 0.744 -1.688 3.14 0 3.884 l 6.73 2.968 L 20.47 55.698 L 8.331 52.081 C 6.742 51.61 5.072 52.512 4.599 54.1 s 0.43 3.259 2.018 3.731 l 6.701 1.997 l -6.191 3.574 C 5.692 64.23 5.201 66.065 6.029 67.5 c 0.556 0.963 1.564 1.501 2.601 1.501 c 0.509 0 1.025 -0.13 1.497 -0.403 l 6.19 -3.574 l -1.621 6.801 c -0.384 1.611 0.611 3.229 2.223 3.613 c 0.234 0.056 0.468 0.083 0.698 0.083 c 1.357 0 2.587 -0.928 2.916 -2.306 l 2.937 -12.321 l 10.026 -5.789 l -0.795 7.313 c -0.199 1.834 1.875 3.032 3.364 1.942 L 42 60.015 v 11.577 l -9.202 8.704 c -1.204 1.139 -1.256 3.038 -0.118 4.241 c 0.59 0.624 1.384 0.938 2.18 0.938 c 0.74 0 1.481 -0.272 2.061 -0.82 L 42 79.852 V 87 c 0 1.657 1.343 3 3 3 c 1.657 0 3 -1.343 3 -3 v -7.148 l 5.079 4.804 c 0.58 0.549 1.321 0.82 2.061 0.82 c 0.796 0 1.591 -0.314 2.181 -0.938 c 1.139 -1.204 1.086 -3.103 -0.118 -4.241 L 48 71.593 V 60.015 l 5.935 4.345 c 1.489 1.09 3.563 -0.108 3.364 -1.942 l -0.795 -7.313 l 10.027 5.789 l 2.937 12.32 c 0.328 1.378 1.559 2.306 2.915 2.306 c 0.23 0 0.465 -0.027 0.698 -0.083 c 1.612 -0.384 2.607 -2.002 2.223 -3.613 l -1.621 -6.801 l 6.19 3.574 c 0.473 0.273 0.988 0.403 1.497 0.403 c 1.037 0 2.045 -0.539 2.601 -1.501 c 0.829 -1.435 0.337 -3.27 -1.098 -4.098 l -6.191 -3.575 l 6.7 -1.997 c 1.588 -0.474 2.492 -2.144 2.019 -3.731 C 84.928 52.512 83.256 51.61 81.669 52.081 z" style="stroke: none; stroke-width: 1; stroke-dasharray: none; stroke-linecap: butt; stroke-linejoin: miter; stroke-miterlimit: 10; fill: rgb(40,203,247); fill-rule: nonzero; opacity: 1;" transform=" matrix(1 0 0 1 0 0) " stroke-linecap="round" />
</g>
</svg>