<svg xmlns="http://www.w3.org/2000/svg" xmlns:xlink="http://www.w3.org/1999/xlink" version="1.1" width="256" height="256" viewBox="0 0 256 256" xml:space="preserve">

<defs>
</defs>
<g style="stroke: none; stroke-width: 0; stroke-dasharray: none; stroke-linecap: butt; stroke-linejoin: miter; stroke-miterlimit: 10; fill: none; fill-rule: nonzero; opacity: 1;" transform="translate(1.4065934065934016 1.4065934065934016) scale(2.81 2.81)" >
	<path d="M 89.951 34.736 c -0.171 -0.525 -0.735 -0.813 -1.26 -0.642 l -19.493 6.333 l 8.196 -14.13 c 0.277 -0.478 0.114 -1.09 -0.363 -1.367 c -0.479 -0.278 -1.091 -0.115 -1.367 0.363 l -9.315 16.06 l -9.93 3.226 L 46 37.01 V 26.568 l 12.395 -13.821 c 0.369 -0.411 0.335 -1.043 -0.076 -1.412 c -0.411 -0.366 -1.042 -0.334 -1.412 0.077 L 46 23.573 V 3.077 c 0 -0.552 -0.448 -1 -1 -1 s -1 0.448 -1 1 v 20.496 L 33.094 11.411 c -0.369 -0.412 -1.001 -0.446 -1.412 -0.077 c -0.411 0.369 -0.446 1.001 -0.077 1.412 L 44 26.568 V 37.01 l -10.419 7.57 l -9.93 -3.227 l -9.314 -16.06 c -0.277 -0.478 -0.889 -0.64 -1.367 -0.363 c -0.478 0.277 -0.64 0.889 -0.363 1.367 l 8.196 14.13 L 1.309 34.094 c -0.526 -0.171 -1.089 0.118 -1.26 0.642 c -0.17 0.525 0.117 1.089 0.642 1.26 l 19.492 6.333 L 5.247 48.944 c -0.505 0.224 -0.733 0.814 -0.51 1.319 c 0.166 0.373 0.531 0.595 0.915 0.595 c 0.135 0 0.273 -0.027 0.404 -0.086 l 16.976 -7.518 l 9.93 3.226 l 3.98 12.248 l -6.138 8.448 l -18.152 3.895 c -0.54 0.115 -0.884 0.647 -0.768 1.187 c 0.101 0.469 0.515 0.79 0.977 0.79 c 0.069 0 0.14 -0.007 0.211 -0.022 l 15.971 -3.427 l -12.046 16.58 c -0.325 0.447 -0.226 1.072 0.221 1.396 c 0.178 0.129 0.383 0.191 0.587 0.191 c 0.31 0 0.614 -0.143 0.81 -0.412 l 12.047 -16.581 l 1.675 16.249 c 0.053 0.515 0.487 0.897 0.993 0.897 c 0.035 0 0.069 -0.002 0.104 -0.005 c 0.549 -0.057 0.949 -0.548 0.892 -1.098 l -1.904 -18.467 l 6.138 -8.448 H 51.44 l 6.136 8.446 L 55.673 86.82 c -0.057 0.55 0.343 1.041 0.893 1.098 c 0.035 0.003 0.069 0.005 0.104 0.005 c 0.507 0 0.94 -0.383 0.994 -0.897 l 1.675 -16.249 l 12.047 16.582 c 0.195 0.27 0.5 0.412 0.81 0.412 c 0.204 0 0.409 -0.063 0.587 -0.191 c 0.446 -0.324 0.546 -0.949 0.221 -1.396 l -12.046 -16.58 l 15.971 3.427 c 0.071 0.016 0.142 0.022 0.211 0.022 c 0.461 0 0.876 -0.321 0.977 -0.79 c 0.116 -0.54 -0.228 -1.072 -0.768 -1.187 l -18.151 -3.895 l -6.138 -8.448 l 3.98 -12.249 l 9.93 -3.226 l 16.975 7.518 c 0.132 0.059 0.27 0.086 0.404 0.086 c 0.384 0 0.75 -0.222 0.915 -0.595 c 0.224 -0.505 -0.004 -1.096 -0.509 -1.319 l -14.936 -6.615 l 19.492 -6.333 C 89.834 35.825 90.122 35.261 89.951 34.736 z" style="stroke: none; stroke-width: 1; stroke-dasharray: none; stroke-linecap: butt; stroke-linejoin: miter; stroke-miterlimit: 10; fill: rgb(64,180,197); fill-rule: nonzero; opacity: 1;" transform=" matrix(1 0 0 1 0 0) " stroke-linecap="round" />
</g>
</svg>