<svg xmlns="http://www.w3.org/2000/svg" xmlns:xlink="http://www.w3.org/1999/xlink" version="1.1" width="256" height="256" viewBox="0 0 256 256" xml:space="preserve">

<defs>
</defs>
<g style="stroke: none; stroke-width: 0; stroke-dasharray: none; stroke-linecap: butt; stroke-linejoin: miter; stroke-miterlimit: 10; fill: none; fill-rule: nonzero; opacity: 1;" transform="translate(1.4065934065934016 1.4065934065934016) scale(2.81 2.81)" >
	<path d="M 88 43 h -6.823 l 3.13 -3.309 c 0.759 -0.802 0.724 -2.068 -0.079 -2.828 c -0.802 -0.758 -2.066 -0.723 -2.827 0.079 L 75.671 43 h -5.881 l 5.05 -5.339 c 0.759 -0.803 0.724 -2.068 -0.079 -2.828 c -0.803 -0.759 -2.067 -0.723 -2.827 0.079 L 64.283 43 h -5.912 l -4.953 -8.578 l 2.957 -5.122 l 10.829 -2.581 c 1.074 -0.256 1.737 -1.334 1.481 -2.409 c -0.256 -1.075 -1.337 -1.734 -2.409 -1.481 l -7.148 1.704 l 2.941 -5.094 l 8.111 -1.934 c 1.074 -0.256 1.737 -1.334 1.481 -2.409 s -1.334 -1.736 -2.409 -1.481 l -4.43 1.056 l 3.411 -5.909 c 0.552 -0.957 0.225 -2.18 -0.732 -2.732 c -0.959 -0.555 -2.181 -0.225 -2.732 0.732 l -3.411 5.908 l -1.301 -4.364 c -0.315 -1.059 -1.434 -1.664 -2.488 -1.345 c -1.059 0.315 -1.661 1.429 -1.346 2.488 l 2.382 7.991 l -3.108 5.383 l -2.237 -7.508 c -0.315 -1.059 -1.432 -1.663 -2.488 -1.345 c -1.059 0.315 -1.661 1.429 -1.346 2.488 l 3.318 11.135 l -2.789 4.831 h -9.907 l -2.79 -4.832 l 3.318 -11.134 c 0.315 -1.059 -0.287 -2.172 -1.345 -2.488 c -1.057 -0.317 -2.173 0.287 -2.488 1.345 l -2.237 7.508 l -3.108 -5.383 l 2.381 -7.991 c 0.315 -1.059 -0.287 -2.172 -1.345 -2.488 c -1.06 -0.318 -2.173 0.287 -2.488 1.345 l -1.301 4.365 l -3.412 -5.909 C 24.68 5.804 23.457 5.476 22.5 6.029 c -0.957 0.552 -1.284 1.775 -0.732 2.732 l 3.412 5.909 l -4.431 -1.056 c -1.076 -0.256 -2.153 0.408 -2.409 1.481 c -0.256 1.075 0.407 2.153 1.481 2.409 l 8.111 1.934 l 2.941 5.094 l -7.15 -1.704 c -1.079 -0.257 -2.153 0.408 -2.409 1.481 c -0.256 1.075 0.407 2.153 1.481 2.409 l 10.83 2.582 l 2.956 5.12 L 31.629 43 h -5.579 l -7.984 -8.44 c -0.759 -0.801 -2.024 -0.837 -2.828 -0.079 c -0.802 0.759 -0.837 2.025 -0.079 2.828 L 20.544 43 h -6.215 l -5.73 -6.058 c -0.758 -0.801 -2.024 -0.837 -2.828 -0.079 c -0.802 0.759 -0.837 2.025 -0.079 2.828 L 8.823 43 H 2 c -1.104 0 -2 0.896 -2 2 s 0.896 2 2 2 h 6.823 l -3.13 3.31 c -0.759 0.802 -0.724 2.068 0.079 2.827 c 0.387 0.365 0.881 0.547 1.374 0.547 c 0.531 0 1.06 -0.21 1.454 -0.626 L 14.329 47 h 5.882 l -5.05 5.34 c -0.759 0.802 -0.724 2.068 0.079 2.827 c 0.387 0.365 0.881 0.547 1.374 0.547 c 0.531 0 1.06 -0.21 1.454 -0.626 L 25.717 47 h 5.912 l 4.953 8.579 l -2.956 5.12 l -10.83 2.582 c -1.074 0.256 -1.738 1.335 -1.481 2.409 c 0.219 0.919 1.039 1.536 1.944 1.536 c 0.153 0 0.31 -0.018 0.465 -0.055 l 7.15 -1.705 l -2.941 5.095 l -8.111 1.933 c -1.074 0.256 -1.738 1.335 -1.481 2.409 c 0.219 0.919 1.039 1.536 1.944 1.536 c 0.153 0 0.31 -0.018 0.465 -0.055 l 4.431 -1.056 l -3.412 5.91 c -0.552 0.957 -0.225 2.18 0.732 2.732 c 0.315 0.182 0.659 0.268 0.998 0.268 c 0.691 0 1.364 -0.358 1.734 -1 l 3.412 -5.909 l 1.301 4.365 c 0.258 0.868 1.054 1.43 1.916 1.43 c 0.189 0 0.382 -0.027 0.572 -0.084 c 1.059 -0.315 1.661 -1.43 1.345 -2.488 l -2.381 -7.991 l 3.108 -5.383 l 2.237 7.509 c 0.258 0.868 1.054 1.43 1.916 1.43 c 0.189 0 0.382 -0.027 0.572 -0.084 c 1.059 -0.315 1.661 -1.43 1.345 -2.488 l -3.318 -11.134 l 2.79 -4.832 h 9.907 l 2.789 4.831 l -3.318 11.135 c -0.315 1.059 0.287 2.173 1.346 2.488 c 0.19 0.057 0.383 0.084 0.572 0.084 c 0.861 0 1.657 -0.562 1.916 -1.43 l 2.237 -7.508 l 3.108 5.383 l -2.382 7.991 c -0.315 1.059 0.287 2.173 1.346 2.488 c 0.19 0.057 0.383 0.084 0.572 0.084 c 0.861 0 1.657 -0.562 1.916 -1.43 l 1.301 -4.364 l 3.411 5.908 c 0.371 0.642 1.043 1 1.734 1 c 0.339 0 0.683 -0.086 0.998 -0.268 c 0.957 -0.553 1.284 -1.775 0.732 -2.732 l -3.412 -5.909 l 4.43 1.056 c 0.156 0.037 0.312 0.055 0.466 0.055 c 0.904 0 1.725 -0.618 1.943 -1.536 c 0.256 -1.074 -0.407 -2.153 -1.481 -2.409 l -8.111 -1.933 l -2.941 -5.094 l 7.148 1.704 c 0.156 0.037 0.312 0.055 0.466 0.055 c 0.904 0 1.725 -0.617 1.943 -1.536 c 0.256 -1.074 -0.407 -2.153 -1.481 -2.409 L 56.374 60.7 l -2.957 -5.121 L 58.371 47 h 5.579 l 7.984 8.44 c 0.394 0.416 0.923 0.626 1.453 0.626 c 0.493 0 0.987 -0.182 1.374 -0.547 c 0.803 -0.759 0.838 -2.025 0.079 -2.827 L 69.456 47 h 6.216 l 5.73 6.058 c 0.394 0.416 0.923 0.626 1.453 0.626 c 0.493 0 0.988 -0.182 1.374 -0.547 c 0.803 -0.759 0.838 -2.025 0.079 -2.827 L 81.177 47 H 88 c 1.104 0 2 -0.896 2 -2 S 89.104 43 88 43 z M 49.954 53.579 h -9.907 L 35.094 45 l 4.953 -8.579 h 9.907 L 54.906 45 L 49.954 53.579 z" style="stroke: none; stroke-width: 1; stroke-dasharray: none; stroke-linecap: butt; stroke-linejoin: miter; stroke-miterlimit: 10; fill: rgb(40,203,247); fill-rule: nonzero; opacity: 1;" transform=" matrix(1 0 0 1 0 0) " stroke-linecap="round" />
</g>
</svg>